<svg width="33" height="33" viewBox="0 0 33 33" fill="none" xmlns="http://www.w3.org/2000/svg">
<rect y="0.373169" width="32.5463" height="32.5463" rx="16.2732" fill="#0C1B4B"/>
<g clip-path="url(#clip0_246_45006)">
<path d="M9.15369 15.1207C9.15369 14.2781 9.83673 13.5951 10.6793 13.5951C11.5219 13.5951 12.2049 14.2781 12.2049 15.1207V22.2402C12.2049 23.0828 11.5219 23.7658 10.6793 23.7658C9.83673 23.7658 9.15369 23.0828 9.15369 22.2402V15.1207Z" fill="white"/>
<path d="M13.222 10.0354C13.222 9.1928 13.9051 8.50977 14.7477 8.50977C15.5902 8.50977 16.2733 9.1928 16.2733 10.0354V22.2403C16.2733 23.0828 15.5902 23.7659 14.7477 23.7659C13.9051 23.7659 13.222 23.0828 13.222 22.2403V10.0354Z" fill="white"/>
<path d="M17.2904 13.0866C17.2904 12.2441 17.9734 11.561 18.816 11.561C19.6586 11.561 20.3416 12.2441 20.3416 13.0866V22.2403C20.3416 23.0829 19.6586 23.7659 18.816 23.7659C17.9734 23.7659 17.2904 23.0829 17.2904 22.2403V13.0866Z" fill="white"/>
<path d="M21.3583 19.1891C21.3583 18.3465 22.0413 17.6635 22.8839 17.6635C23.7265 17.6635 24.4095 18.3465 24.4095 19.1891V22.2403C24.4095 23.0829 23.7265 23.7659 22.8839 23.7659C22.0413 23.7659 21.3583 23.0829 21.3583 22.2403V19.1891Z" fill="white"/>
</g>
<defs>
<clipPath id="clip0_246_45006">
<rect width="16.2732" height="16.2732" fill="white" transform="translate(8.13629 8.50977)"/>
</clipPath>
</defs>
</svg>
