<svg width="32" height="33" viewBox="0 0 32 33" fill="none" xmlns="http://www.w3.org/2000/svg">
<rect y="0.967041" width="32" height="32" rx="16" fill="#4B96E7"/>
<g clip-path="url(#clip0_246_42646)">
<path fill-rule="evenodd" clip-rule="evenodd" d="M16.2732 10.4596C17.2094 10.4596 17.9684 9.70065 17.9684 8.76446C17.9684 7.82827 17.2094 7.06934 16.2732 7.06934C15.3371 7.06934 14.5781 7.82827 14.5781 8.76446C14.5781 9.70065 15.3371 10.4596 16.2732 10.4596ZM16.2732 12.1547C15.3371 12.1547 14.5781 12.9136 14.5781 13.8498V25.7157C14.5781 26.6519 15.3371 27.4108 16.2732 27.4108C17.2094 27.4108 17.9684 26.6519 17.9684 25.7157V13.8498C17.9684 12.9136 17.2094 12.1547 16.2732 12.1547Z" fill="white"/>
</g>
<defs>
<clipPath id="clip0_246_42646">
<rect width="20.3415" height="20.3415" fill="white" transform="translate(6.10254 7.06934)"/>
</clipPath>
</defs>
</svg>
