<svg width="22" height="21" viewBox="0 0 22 21" fill="none" xmlns="http://www.w3.org/2000/svg">
<path d="M1.8125 19.0312C1.8125 20.1182 2.69434 21 3.78125 21H18.2188C19.3057 21 20.1875 20.1182 20.1875 19.0312V7.875H1.8125V19.0312ZM14.9375 10.9922C14.9375 10.7215 15.159 10.5 15.4297 10.5H17.0703C17.341 10.5 17.5625 10.7215 17.5625 10.9922V12.6328C17.5625 12.9035 17.341 13.125 17.0703 13.125H15.4297C15.159 13.125 14.9375 12.9035 14.9375 12.6328V10.9922ZM14.9375 16.2422C14.9375 15.9715 15.159 15.75 15.4297 15.75H17.0703C17.341 15.75 17.5625 15.9715 17.5625 16.2422V17.8828C17.5625 18.1535 17.341 18.375 17.0703 18.375H15.4297C15.159 18.375 14.9375 18.1535 14.9375 17.8828V16.2422ZM9.6875 10.9922C9.6875 10.7215 9.90898 10.5 10.1797 10.5H11.8203C12.091 10.5 12.3125 10.7215 12.3125 10.9922V12.6328C12.3125 12.9035 12.091 13.125 11.8203 13.125H10.1797C9.90898 13.125 9.6875 12.9035 9.6875 12.6328V10.9922ZM9.6875 16.2422C9.6875 15.9715 9.90898 15.75 10.1797 15.75H11.8203C12.091 15.75 12.3125 15.9715 12.3125 16.2422V17.8828C12.3125 18.1535 12.091 18.375 11.8203 18.375H10.1797C9.90898 18.375 9.6875 18.1535 9.6875 17.8828V16.2422ZM4.4375 10.9922C4.4375 10.7215 4.65898 10.5 4.92969 10.5H6.57031C6.84102 10.5 7.0625 10.7215 7.0625 10.9922V12.6328C7.0625 12.9035 6.84102 13.125 6.57031 13.125H4.92969C4.65898 13.125 4.4375 12.9035 4.4375 12.6328V10.9922ZM4.4375 16.2422C4.4375 15.9715 4.65898 15.75 4.92969 15.75H6.57031C6.84102 15.75 7.0625 15.9715 7.0625 16.2422V17.8828C7.0625 18.1535 6.84102 18.375 6.57031 18.375H4.92969C4.65898 18.375 4.4375 18.1535 4.4375 17.8828V16.2422ZM18.2188 2.625H16.25V0.65625C16.25 0.295312 15.9547 0 15.5938 0H14.2812C13.9203 0 13.625 0.295312 13.625 0.65625V2.625H8.375V0.65625C8.375 0.295312 8.07969 0 7.71875 0H6.40625C6.04531 0 5.75 0.295312 5.75 0.65625V2.625H3.78125C2.69434 2.625 1.8125 3.50684 1.8125 4.59375V6.5625H20.1875V4.59375C20.1875 3.50684 19.3057 2.625 18.2188 2.625Z" fill="#7C1CC7"/>
</svg>
