<svg width="32" height="33" viewBox="0 0 32 33" fill="none" xmlns="http://www.w3.org/2000/svg">
<rect y="0.475586" width="32" height="32" rx="16" fill="#E05857"/>
<g clip-path="url(#clip0_246_42656)">
<mask id="mask0_246_42656" style="mask-type:alpha" maskUnits="userSpaceOnUse" x="6" y="6" width="21" height="21">
<circle cx="16.2733" cy="16.7489" r="10.1707" fill="#C4C4C4"/>
</mask>
<g mask="url(#mask0_246_42656)">
<path fill-rule="evenodd" clip-rule="evenodd" d="M20.9474 23.8203C19.6075 24.7077 18.0007 25.2245 16.2733 25.2245C11.5923 25.2245 7.79766 21.4298 7.79766 16.7489C7.79766 15.0214 8.31446 13.4146 9.20187 12.0748L20.9474 23.8203ZM23.3446 21.423L11.5991 9.6775C12.939 8.79006 14.5458 8.27325 16.2733 8.27325C20.9542 8.27325 24.7489 12.0679 24.7489 16.7489C24.7489 18.4763 24.2321 20.0831 23.3446 21.423ZM24.5637 22.642C25.7477 20.9794 26.444 18.9455 26.444 16.7489C26.444 11.1317 21.8904 6.57812 16.2733 6.57812C14.0767 6.57812 12.0427 7.27447 10.3801 8.45846L10.2801 8.3585L9.10678 9.53185C9.08988 9.54863 9.07304 9.56547 9.05627 9.58236L7.88286 10.7558L7.98284 10.8557C6.79887 12.5183 6.10254 14.5523 6.10254 16.7489C6.10254 22.366 10.6561 26.9196 16.2733 26.9196C18.4698 26.9196 20.5038 26.2233 22.1664 25.0393L22.2665 25.1394L24.6637 22.7421L24.5637 22.642Z" fill="white"/>
</g>
</g>
<defs>
<clipPath id="clip0_246_42656">
<rect width="20.3415" height="20.3415" fill="white" transform="translate(6.10254 6.57812)"/>
</clipPath>
</defs>
</svg>
