<svg width="32" height="33" viewBox="0 0 32 33" fill="none" xmlns="http://www.w3.org/2000/svg">
<rect y="0.371826" width="32" height="32" rx="16" fill="#AB4CF5"/>
<g clip-path="url(#clip0_246_42670)">
<path fill-rule="evenodd" clip-rule="evenodd" d="M17.6596 25.3907C19.643 22.0468 23.0537 15.9106 23.0537 13.2547C23.0537 9.50997 20.0179 6.47424 16.2732 6.47424C12.5284 6.47424 9.49268 9.50997 9.49268 13.2547C9.49268 15.9106 12.9033 22.0468 14.8867 25.3907C15.52 26.4583 17.0264 26.4583 17.6596 25.3907ZM16.2733 15.7974C18.1457 15.7974 19.6636 14.2796 19.6636 12.4072C19.6636 10.5348 18.1457 9.01693 16.2733 9.01693C14.4009 9.01693 12.8831 10.5348 12.8831 12.4072C12.8831 14.2796 14.4009 15.7974 16.2733 15.7974Z" fill="white"/>
</g>
<defs>
<clipPath id="clip0_246_42670">
<rect width="20.3415" height="20.3415" fill="white" transform="translate(6.10254 6.47424)"/>
</clipPath>
</defs>
</svg>
