<svg width="28" height="13" viewBox="0 0 28 13" fill="none" xmlns="http://www.w3.org/2000/svg">
<path d="M25.4825 6.00684C25.4825 6.29764 25.266 6.5838 24.8514 6.85112C24.4385 7.11736 23.8385 7.35854 23.0938 7.56165C21.6049 7.96771 19.5458 8.21934 17.27 8.21934C14.9942 8.21934 12.9352 7.96771 11.4463 7.56165C10.7015 7.35854 10.1016 7.11736 9.68867 6.85112C9.27409 6.5838 9.05752 6.29764 9.05752 6.00684C9.05752 5.71603 9.27409 5.42987 9.68867 5.16255C10.1016 4.89631 10.7015 4.65513 11.4463 4.45202C12.9352 4.04596 14.9942 3.79434 17.27 3.79434C19.5458 3.79434 21.6049 4.04596 23.0938 4.45202C23.8385 4.65513 24.4385 4.89631 24.8514 5.16255C25.266 5.42987 25.4825 5.71603 25.4825 6.00684Z" fill="#B2E5D1" stroke="#0033C1" stroke-width="0.075"/>
<path d="M17.9823 6.00586C17.9823 6.29666 17.7657 6.58282 17.3511 6.85014C16.9382 7.11638 16.3383 7.35756 15.5935 7.56067C14.1046 7.96674 12.0456 8.21836 9.76978 8.21836C7.49395 8.21836 5.43492 7.96674 3.94601 7.56067C3.20129 7.35756 2.60132 7.11638 2.18842 6.85014C1.77384 6.58282 1.55728 6.29666 1.55728 6.00586C1.55728 5.71506 1.77384 5.4289 2.18842 5.16157C2.60132 4.89534 3.20129 4.65415 3.94601 4.45105C5.43492 4.04498 7.49395 3.79336 9.76978 3.79336C12.0456 3.79336 14.1046 4.04498 15.5935 4.45105C16.3383 4.65415 16.9382 4.89534 17.3511 5.16157C17.7657 5.4289 17.9823 5.71506 17.9823 6.00586Z" fill="#B2E5D1" stroke="#0033C1" stroke-width="0.075"/>
<circle cx="13.5193" cy="5.25586" r="4.5" fill="#151F3B"/>
<rect x="0.0562988" y="8.29336" width="26.925" height="4.425" fill="#D8EEFB" stroke="#0033C1" stroke-width="0.075"/>
</svg>
