<svg id="logos" xmlns="http://www.w3.org/2000/svg" viewBox="0 0 88.54 88.53"><defs><style>.cls-1{fill:#071b4e;}</style></defs><path class="cls-1" d="M44.28,0A44.27,44.27,0,1,0,88.54,44.28,44.33,44.33,0,0,0,44.28,0ZM18.5,45.5A71.16,71.16,0,0,0,22.1,67c-9.55-.9-13.43-2.1-13.77-2.47L8,64A42.55,42.55,0,0,1,3.11,45.5ZM42.78,67.93c-6.37,0-12.24-.26-17.48-.66A67.5,67.5,0,0,1,21.47,45.5H42.79Zm-23.3,1.81c1.19.13,2.47.25,3.78.36,2.46,6,5.69,10.87,9.43,14.17a41.09,41.09,0,0,1-22-16A67.86,67.86,0,0,0,19.48,69.74Zm23.31,1.18v15h-.59c-6.08-1-11.76-6.71-15.66-15.57,4.75.31,10,.51,15.19.57ZM7.84,24.55h.08l.26-.49c.59-.45,4.73-1.35,13.64-2A69.19,69.19,0,0,0,18.5,42.21H3.12A41.21,41.21,0,0,1,7.84,24.55Zm35-21.94V18.37c-6.06,0-11.66.18-16.64.45,3.92-9.26,9.74-15.15,16-16.19ZM22.93,19c-2.11.14-3.79.28-5.25.42a73.39,73.39,0,0,0-7.32,1A41,41,0,0,1,32.68,4.24C28.76,7.65,25.42,12.7,22.93,19Zm-1.47,23.2A66.32,66.32,0,0,1,25,21.86c5.37-.33,11.36-.5,17.81-.52V42.22ZM80.53,64l-.26.44c-.37.47-4.25,1.69-13.84,2.6a71.2,71.2,0,0,0,3.62-21.49H85.44A42.69,42.69,0,0,1,80.53,64ZM45.76,45.5H67.08a67.63,67.63,0,0,1-3.85,21.77c-5.41.4-11.29.62-17.48.65Zm0,25.43c5.52,0,11.23-.24,16.25-.58-3.91,8.86-9.58,14.51-15.65,15.56l-.61,0Zm19.52-.83c1.27-.1,2.54-.22,3.77-.35a67.8,67.8,0,0,0,8.81-1.44,41.1,41.1,0,0,1-22,16C59.57,81,62.8,76.13,65.27,70.1ZM45.76,18.37V2.61h.58C52.67,3.68,58.5,9.56,62.4,18.83,57.37,18.55,51.65,18.4,45.76,18.37ZM70.05,42.22a70,70,0,0,0-3.32-20.15c9.14.68,13.1,1.61,13.63,2l.25.35a40.7,40.7,0,0,1,4.81,17.85Zm.82-22.78c-1.45-.14-3.12-.27-5.24-.42C63.14,12.71,59.8,7.65,55.89,4.25a41,41,0,0,1,22.3,16.19A73,73,0,0,0,70.87,19.44ZM67.08,42.22H45.75V21.34c6.51,0,12.5.2,17.81.52A66.51,66.51,0,0,1,67.08,42.22Z"/></svg>